<svg width="85" height="85" viewBox="0 0 85 85" fill="none" xmlns="http://www.w3.org/2000/svg">
<path d="M57.794 53.1945C55.9024 66.7859 40.1233 68.0859 30.7471 60.2303C13.6596 45.9128 20.966 14.3528 44.0182 25.3793C46.1968 26.4216 52.4849 31.4547 53.0741 33.5775C53.5425 35.2669 48.6927 38.227 47.3058 39.65C44.5319 42.493 42.0874 44.2175 45.2601 47.3006C46.6108 48.6153 52.2613 53.9236 53.4005 54.6351C54.1136 55.0801 54.5578 55.3407 55.4612 55.1709C56.2378 51.997 56.2378 48.6328 56.7787 45.4385C56.8663 44.9261 57.0234 43.7461 57.797 43.8925C57.5099 46.8263 58.1928 50.3515 57.797 53.1975L57.794 53.1945Z" fill="#FEFEFE"/>
<path d="M30.8065 21.1281C27.0556 23.9554 24.4694 25.1508 22.2624 29.6131C13.3033 47.7122 29.4686 59.5515 35.9848 74.468C19.1596 75.4496 8.75501 57.2812 7.81131 42.2804C7.05874 30.2815 18.9864 19.6346 30.8065 21.1281Z" fill="#FEFEFE"/>
<path d="M65.2369 71.2992L64.8877 72.5219L39.0268 85C40.8941 77.9422 36.0793 71.6521 33.8954 65.3279C43.0366 69.9588 52.3849 67.8322 57.824 58.7654C57.9927 63.6997 60.2417 69.9588 65.2369 71.293V71.2992Z" fill="#FEFEFE"/>
<path d="M54.9358 54.5097C53.947 54.7714 53.796 54.0915 53.2247 53.6463C52.2832 52.9123 45.7287 46.8748 45.5126 46.3905C44.8435 44.8954 47.0224 42.6783 48.0823 41.463C50.1606 39.0805 52.9079 37.5313 54.921 35.0886L81.5537 0.133C83.0902 -0.303193 84.2152 0.334551 84.0198 2.03119L57.1029 39.0444L54.9329 54.5097H54.9358Z" fill="#FEFEFE"/>
<path d="M46.8009 23.2857C47.025 23.5209 48.2485 25.2975 46.7213 24.9129C41.5204 21.452 31.8232 18.3661 25.7083 18.8142C15.7075 19.5483 7.93559 27.6492 5.53858 37.7778L0.464447 34.962C8.15377 16.9614 32.7844 8.55854 46.8009 23.2857Z" fill="#FEFEFE"/>
</svg>
