<svg width="78" height="78" viewBox="0 0 78 78" fill="none" xmlns="http://www.w3.org/2000/svg">
<path d="M41.5585 12.239C47.9665 12.239 53.7777 14.8409 57.9843 19.0459L57.9934 19.0551C62.1969 23.2616 64.7973 29.0698 64.7973 35.4778C64.7973 41.8858 62.1954 47.6955 57.9904 51.9036L57.9812 51.9127C55.2408 54.6516 51.8198 56.7084 47.9985 57.8107C47.9056 56.7084 47.6605 55.6382 47.2616 54.6242C50.4862 53.6666 53.3667 51.9188 55.6793 49.6047C59.2966 45.9904 61.5301 40.9967 61.5301 35.4778C61.5301 29.9589 59.2966 24.9652 55.6823 21.3524C52.071 17.7397 47.0774 15.5062 41.5585 15.5062C36.0396 15.5062 31.0459 17.7397 27.4377 21.3494C24.4415 24.3456 22.3938 28.2857 21.7803 32.6871C20.5806 33.322 19.4174 34.0954 18.3243 35.0058C18.4491 28.7836 21.0251 23.155 25.1266 19.052L25.1358 19.0414C29.3438 14.8379 35.1505 12.239 41.5585 12.239ZM48.7308 34.9206C50.9094 34.9206 52.6739 36.6851 52.6739 38.8622C52.6739 41.0408 50.9094 42.8054 48.7308 42.8054C46.5537 42.8054 44.7891 41.0408 44.7891 38.8622C44.7891 36.6851 46.5537 34.9206 48.7308 34.9206ZM37.6306 23.2921C40.4547 23.2921 42.7445 25.5818 42.7445 28.406C42.7445 31.2286 40.4547 33.5199 37.6306 33.5199C34.8079 33.5199 32.5181 31.2286 32.5181 28.406C32.5181 25.5818 34.8079 23.2921 37.6306 23.2921ZM32.7968 40.2583C35.5661 43.0277 34.6892 48.3958 30.8358 52.2492C27.663 55.422 23.4595 56.5775 20.5288 55.3367C18.1477 55.5849 16.1137 56.5044 15.0236 57.7666C10.4486 63.0632 15.2398 65.6742 9.65542 70.884C7.77062 72.6425 5.30272 73.8406 2.85613 73.9731C1.90764 74.0264 0.956103 73.9594 0 73.7584C6.28318 72.7186 8.91094 70.0634 9.9934 67.2636C11.5661 63.2002 9.4712 60.8267 12.5268 57.0114C13.9914 55.1829 15.794 53.8508 17.8873 52.8901C16.3847 49.9503 17.4991 45.5275 20.8074 42.2192C24.6607 38.3659 30.0274 37.489 32.7968 40.2583ZM38.5151 57.4834C36.7825 55.7523 33.424 56.3004 31.014 58.712C29.0287 60.6973 28.307 63.325 29.0804 65.1581C28.9267 66.647 28.3512 67.9198 27.561 68.6019C24.2482 71.4641 22.6146 68.4664 19.3565 71.9604C18.2573 73.1403 17.5082 74.6826 17.423 76.2126C17.3925 76.8064 17.4336 77.4032 17.5585 78C18.2086 74.0705 19.8711 72.4263 21.6204 71.7473C24.1629 70.7653 25.6473 72.0761 28.0345 70.1639C29.1779 69.2489 30.0107 68.1208 30.6151 66.8099C32.4527 67.7508 35.2175 67.052 37.2865 64.986C39.698 62.5745 40.2461 59.2159 38.5151 57.4834ZM41.5585 0C51.354 0 60.2253 3.97209 66.644 10.3908C73.0642 16.811 77.0363 25.6808 77.0363 35.4778C77.0363 45.2733 73.0642 54.1446 66.644 60.5633C60.2253 66.9835 51.354 70.9556 41.5585 70.9556L41.2388 70.9525C42.0807 70.3953 42.883 69.7437 43.6245 69.0023L43.6549 68.9734C44.1208 68.509 44.5501 68.0188 44.9444 67.5118C52.4867 66.7232 59.2555 63.3311 64.3344 58.2522C70.1624 52.4258 73.7676 44.372 73.7676 35.4778C73.7676 26.5836 70.1624 18.5298 64.3344 12.7019C58.5065 6.87389 50.4527 3.26871 41.5585 3.26871C32.6643 3.26871 24.6105 6.87389 18.7825 12.7019C12.9561 18.5298 9.3494 26.5836 9.3494 35.4778C9.3494 39.5169 10.0939 43.3839 11.4519 46.948C11.3941 47.353 11.353 47.7594 11.3271 48.1629C10.613 48.7673 9.92489 49.4387 9.26262 50.1786C7.22101 45.6996 6.08069 40.7211 6.08069 35.4778C6.08069 25.6808 10.0528 16.811 16.473 10.3908C22.8917 3.97209 31.763 0 41.5585 0Z" fill="#FEFEFE"/>
</svg>
