<svg width="74" height="73" viewBox="0 0 74 73" fill="none" xmlns="http://www.w3.org/2000/svg">
<path d="M73.0639 36.192C73.1571 56.1796 56.748 72.7453 36.2981 72.4583C16.5677 72.1824 1.10172 56.4145 0.516484 37.5451C-0.147037 16.0814 17.0523 0.387987 35.9328 0.00776751C56.9344 -0.417184 73.1907 16.6554 73.0676 36.192H73.0639ZM32.5034 41.5486C31.6721 41.1982 30.8931 41.3734 30.1065 41.6866C29.9388 41.7537 29.6592 41.7238 29.5138 41.6195C28.2203 40.6913 26.7479 40.1545 25.2531 39.6848C23.8105 39.23 22.3344 38.9244 20.8098 39.23C19.1063 39.5693 17.4139 39.942 15.7066 40.2589C14.8754 40.4154 14.018 40.5906 13.183 40.5496C12.1206 40.4974 11.0769 40.1955 10.0145 40.0725C9.0006 39.9532 7.97923 39.86 6.96158 39.8675C6.07068 39.8749 4.99711 40.8777 4.82564 41.7499C4.62808 42.7489 4.61317 43.7629 4.87783 44.7507C5.76128 48.0907 7.1927 51.1883 9.01179 54.1182C10.7265 56.8804 12.9817 59.1692 15.3711 61.3238C17.8239 63.5343 20.6495 65.1707 23.6689 66.494C26.6175 67.7838 29.6779 68.6971 32.8762 68.999C37.3083 69.4165 41.7219 69.2227 46.0198 67.9254C50.6347 66.5313 54.8059 64.3283 58.4478 61.1262C60.882 58.9828 62.9769 56.5673 64.7326 53.861C66.6039 50.9796 67.957 47.8484 68.7287 44.4972C69.1275 42.7638 69.5077 41.0119 69.6904 39.2449C70.1042 35.1744 69.6904 31.1597 68.5721 27.2196C67.1742 22.3177 64.7587 17.9974 61.3293 14.2101C57.967 10.4974 54.0156 7.66808 49.4008 5.73716C46.62 4.57413 43.7273 3.83979 40.7415 3.5043C36.8722 3.07189 33.0253 3.22472 29.2231 4.11563C24.1498 5.30475 19.6058 7.56743 15.6321 10.9409C12.3592 13.718 9.60821 16.9275 7.61392 20.7596C6.80129 22.3252 6.0744 23.902 5.82465 25.6689C5.34006 29.0871 5.74264 32.3339 7.77048 35.2265C9.01551 37.0046 10.7302 38.1229 12.8997 38.4621C14.3684 38.6895 15.8222 38.4286 17.2387 38.1043C19.7698 37.5302 22.3083 37.3289 24.8506 37.8732C27.6836 38.4808 30.1923 39.8153 32.5071 41.5486H32.5034Z" fill="#FEFEFE"/>
<path d="M31.668 47.9971C31.2356 48.2953 30.8293 48.6345 30.3708 48.8843C29.0662 49.5963 27.754 50.2971 26.4158 50.9457C25.4727 51.4005 24.7272 52.0304 24.2053 52.9325C23.9705 53.3351 23.7207 53.7265 23.471 54.1179C22.9379 54.9492 22.1178 54.9902 21.2567 54.5839C21.0107 54.4683 20.7982 54.267 20.6044 54.0695C19.542 52.9884 18.3753 52.0491 17.0109 51.3669C16.8171 51.27 16.6158 51.1619 16.4704 51.0091C15.7734 50.2635 15.0875 49.5105 14.4165 48.7426C14.1481 48.4333 14.0698 48.0083 14.3569 47.725C14.5619 47.5237 14.9682 47.4119 15.259 47.4492C15.6951 47.5051 16.12 47.6952 16.5301 47.8778C18.0323 48.5451 19.583 49.0036 21.2344 49.0744C21.6034 49.0893 21.9799 49.1825 22.3378 49.1303C22.9528 49.0446 23.3517 48.6234 23.7393 48.1462C25.2416 46.2861 26.7364 44.4111 28.835 43.1586C29.5545 42.73 30.2553 42.2752 31.1387 42.2491C32.1787 42.2193 33.051 42.633 33.8189 43.263C35.336 44.5118 36.3872 46.1333 37.2073 47.8816C37.9305 49.4211 38.5045 51.0314 39.1532 52.6045C39.2874 52.9251 39.4626 53.227 39.675 53.5178C39.6489 52.3846 39.3955 51.311 38.9929 50.2673C38.594 49.2347 38.1989 48.1984 37.7926 47.136C41.4531 46.8304 44.4091 45.0262 47.052 42.5995C47.0297 42.5548 47.011 42.5138 46.9887 42.469C46.8135 42.5659 46.6234 42.6405 46.4668 42.7635C44.9944 43.9265 43.3617 44.8286 41.6432 45.5406C40.6107 45.9693 39.5073 46.2228 38.3368 45.9283C37.4198 45.6972 36.7712 45.1231 36.2903 44.4111C35.1981 42.7933 34.1581 41.1383 33.1703 39.4571C32.2645 37.9176 31.2282 36.5085 29.8639 35.338C29.3271 34.8758 28.6971 34.7379 28.0336 34.6186C27.6981 34.559 27.3552 34.421 27.0719 34.2309C26.9414 34.1452 26.8631 33.8283 26.9153 33.6681C26.9675 33.5152 27.2098 33.381 27.3924 33.3326C27.6906 33.2506 28.0112 33.2431 28.3243 33.2021L28.3355 32.9896C28.0373 32.9151 27.7242 32.8741 27.4409 32.7585C27.2359 32.6728 26.96 32.5162 26.919 32.341C26.8743 32.1621 27.0383 31.8862 27.1874 31.726C27.2657 31.6402 27.5155 31.6663 27.6757 31.7036C28.0336 31.7856 28.3877 31.9049 28.7418 32.0055C28.7754 31.9422 28.8089 31.8751 28.8462 31.8117C28.6337 31.6365 28.4287 31.4576 28.2088 31.2898C28.041 31.1631 27.8323 31.0773 27.6869 30.9282C27.5155 30.753 27.344 30.5331 27.5788 30.2796C27.8025 30.0411 28.0597 29.8659 28.3989 30.0634C28.7344 30.2573 29.0512 30.4846 29.3979 30.6561C29.5247 30.7195 29.7073 30.6822 29.8639 30.6897C29.8527 30.5331 29.8974 30.3393 29.8229 30.2237C29.6738 29.9926 29.4613 29.8025 29.2786 29.5937C29.1332 29.426 28.8611 29.2396 29.1034 29.016C29.2824 28.8482 29.5806 28.714 29.8154 28.7289C30.0502 28.7438 30.3075 28.9228 30.4938 29.0942C31.0865 29.6422 31.6494 30.22 32.2272 30.7829C32.3353 30.8872 32.4546 30.9842 32.641 31.1482C32.7155 30.8388 32.7752 30.6039 32.8236 30.3691C32.887 30.0485 32.9839 29.7354 33.3604 29.7056C33.7481 29.672 33.9382 29.9963 33.9792 30.2908C34.0463 30.8052 34.1171 31.3644 33.9941 31.8564C33.6698 33.1313 34.1134 34.1266 34.9111 35.0622C36.13 36.4899 37.3303 37.9325 38.5418 39.3676C38.9593 39.8634 39.06 39.8709 39.5669 39.4683C40.8343 38.4655 42.0458 37.392 43.3728 36.4787C44.6067 35.6288 45.9263 34.8833 47.272 34.2235C48.066 33.8321 48.9792 33.6904 49.8515 33.3773C49.5645 33.3773 49.2737 33.3512 48.9904 33.381C46.9887 33.5823 45.1957 34.3465 43.5108 35.4089C43.2014 35.6027 42.8435 35.7444 42.4931 35.8487C41.6842 36.0873 41.0878 35.8487 40.7039 35.1032C40.51 34.723 40.2714 34.5739 39.8614 34.6335C39.6937 34.6596 39.5036 34.6782 39.3544 34.6223C39.2091 34.5701 39.0264 34.4397 38.9854 34.3018C38.9034 34.0259 38.7431 33.9439 38.4822 33.9178C37.8298 33.8544 37.5838 33.5823 37.6397 32.9188C37.6696 32.5721 37.6025 32.382 37.2446 32.3336C37.185 32.3261 37.129 32.2926 37.0694 32.2702C35.8095 31.752 35.638 31.4427 36.2307 30.2423C36.6929 29.3067 36.6034 28.4568 36.1785 27.5771C35.802 26.7943 35.4442 26.004 35.0378 25.2361C34.3408 23.9054 34.1693 22.4702 34.3631 21.0239C35.0416 15.9916 37.8634 12.6777 42.646 11.0823C44.3532 10.5119 46.1425 10.5231 47.9355 10.9033C52.4124 11.8464 55.4243 14.4185 56.8036 18.7948C57.6982 21.6427 57.6982 24.513 56.5948 27.3273C55.8306 29.2806 55.7934 31.2861 56.0468 33.3326C56.2146 34.6671 56.5613 35.9456 57.113 37.172C57.8659 38.842 57.9703 40.5866 57.728 42.3721C57.4223 44.5938 56.9191 46.7782 55.9909 48.8172C55.182 50.5916 54.2128 52.2988 53.2287 53.9837C51.2456 57.3759 48.4984 60.0411 45.1658 62.0876C44.1519 62.7101 43.0784 63.2655 41.9713 63.7017C38.9705 64.8833 35.9809 64.1341 33.8077 61.7298C32.1974 59.9479 31.2692 57.8046 30.7026 55.5083C30.2851 53.8085 30.0018 52.0789 29.6402 50.3642C29.5731 50.0548 29.6738 49.8945 29.9123 49.7081C30.5572 49.2123 31.1723 48.6793 31.8022 48.1611C31.7612 48.1127 31.7202 48.0642 31.6792 48.0158L31.668 47.9971Z" fill="#FEFEFE"/>
<path d="M28.9955 50.4019C29.1111 51.2294 29.1819 52.0308 29.3385 52.8136C29.5771 54.0438 29.9312 55.2552 30.1213 56.4928C30.2406 57.2794 30.2219 58.1032 30.1362 58.8972C30.043 59.7359 29.5286 60.1049 28.6899 60.09C28.1792 60.0788 27.6685 60.0043 27.1578 59.9744C25.9053 59.8999 24.6491 59.8589 23.4004 59.7508C22.7927 59.6986 22.1926 59.5309 21.5924 59.4116C21.3054 59.3557 21.0184 59.2811 20.7314 59.2215C20.2095 59.1171 19.7361 58.9382 19.5646 58.3641C19.4304 57.9131 19.5646 57.6409 20.0156 57.5179C20.9401 57.2682 21.8832 57.0706 22.8039 56.8022C24.0527 56.4369 25.3052 56.0641 26.4123 55.341C26.7701 55.1061 27.0124 54.8228 27.0646 54.383C27.169 53.4921 27.3218 52.6049 27.3964 51.7103C27.4262 51.371 27.5343 51.1437 27.8139 50.9945C28.1941 50.7933 28.5818 50.6106 28.9955 50.4056V50.4019Z" fill="#FEFEFE"/>
</svg>
