<svg width="78" height="80" viewBox="0 0 78 80" fill="none" xmlns="http://www.w3.org/2000/svg">
<g clip-path="url(#clip0_1058_8877)">
<path d="M5.47992 2.8819C5.61992 2.4319 6.40992 2.2119 6.87992 2.2519L51.4499 2.3019C52.0999 2.5319 54.0699 -0.298104 54.4599 1.6819C54.6899 2.8319 45.6899 18.2719 44.7899 20.7719C44.6999 21.8719 46.9699 21.7519 46.5999 23.3219C46.1399 25.2819 44.9199 24.9819 44.1399 25.7619C43.2099 26.6819 43.7099 28.3619 41.0999 27.7819C40.8199 28.5219 41.7799 28.7819 41.8599 29.2519C42.1499 30.9419 37.8399 30.3719 37.8399 28.3919C37.8399 27.1719 39.3399 27.5119 39.4799 27.3719C39.6199 27.2419 39.0499 26.0519 39.0499 25.5419C39.0599 24.5719 39.7099 24.0719 39.7999 23.4419C39.8999 22.7519 39.4099 22.1619 39.6299 21.3019C40.2799 18.8319 42.0799 20.2019 42.8799 20.0319C43.2599 19.9519 46.7999 13.6519 46.3499 13.2219C33.1099 13.5019 19.8199 11.5219 6.78992 14.7319C6.35992 14.8619 5.46992 13.9619 5.46992 13.8219C5.46992 11.6619 5.03992 4.2919 5.46992 2.8919L5.47992 2.8819Z" fill="white"/>
<path d="M70.6399 79.1735H15.1899L20.1499 68.1035C24.4899 68.2235 28.8599 68.3035 33.2199 68.2635C41.6599 68.1835 50.2599 68.5235 58.6899 68.2335C60.2799 68.1735 61.8999 68.2235 63.4899 68.3235L66.6099 72.4835L70.6499 79.1735H70.6399Z" fill="white"/>
<path d="M0.219975 66.422C0.259975 66.292 0.859975 65.702 1.03998 65.612C2.91998 64.722 15.47 68.252 16.42 67.662C18.79 62.392 21.47 57.072 23.29 51.662C21.19 51.582 20.87 49.702 22.13 48.242C22.7 47.582 23.39 47.732 23.73 47.332C24.56 46.352 24.04 44.492 26.53 44.772C26.72 43.932 25.05 43.192 26.11 42.542C28.7 40.952 32.6 45.292 28.15 45.182C28.11 46.112 29 46.342 29 47.392C29 48.302 28.33 48.862 28.27 49.472C28.21 49.982 28.58 50.542 28.56 51.042C28.38 54.782 25.46 52.482 24.93 52.872L13.4 79.212C12.58 79.912 11.59 79.162 10.56 79.152C8.59998 79.132 2.29997 79.552 1.03998 78.962C0.849975 78.872 0.219975 78.232 0.219975 78.162C0.219975 75.702 -0.270025 68.152 0.219975 66.422Z" fill="white"/>
<path d="M72.6599 14.6234C72.4299 15.9934 71.1899 15.7034 70.0399 15.6234C63.6799 15.2134 57.1099 12.1334 50.3999 13.2034L55.8599 2.27344H72.0499C72.0499 2.27344 72.6599 2.83344 72.6599 2.88344C72.6599 6.14344 73.1499 11.7034 72.6599 14.6234Z" fill="white"/>
<path d="M77.52 78.5725C77.31 79.2425 72.64 79.6825 72.07 79.1825L54.45 51.2525C53.98 50.9325 52.22 53.3925 50.86 50.9925C50.16 49.7525 50.86 49.2525 50.64 48.4025C50.31 47.1625 48.82 46.5125 50 44.3725H47.98C47.49 42.0325 49.49 40.9425 51.62 41.1325V43.9625C53.62 42.7725 53.75 44.7725 54.68 45.5525C55.38 46.1425 56.13 46.1225 56.89 46.9825C58.89 49.2925 55.74 49.3325 56.13 50.9425L67 67.6625C68.26 67.9625 77.52 65.6225 77.52 67.2325C77.52 69.4725 77.97 77.1025 77.52 78.5625V78.5725Z" fill="white"/>
<path d="M66.9999 16.8419C67.4299 17.2419 65.1499 26.7819 65.0299 28.4319C64.4699 35.6919 69.3799 42.6519 72.0499 49.2319C73.0999 51.8219 76.9199 61.7519 76.3399 63.9519C76.2399 64.3319 73.3899 65.0119 72.8499 64.2119C72.6199 63.8719 71.5199 57.7019 71.0699 56.2819C67.7099 45.7419 60.3699 37.9519 61.7999 26.4019C61.9499 25.1919 63.3999 16.7819 63.7699 16.4219C63.8899 16.3119 66.3199 17.1719 67.0099 16.8319L66.9999 16.8419Z" fill="white"/>
<path d="M14.35 15.6721C14.83 16.0821 16.66 26.6521 16.76 28.0321C17.51 37.7821 9.19998 49.3821 6.39998 59.2621C6.16998 60.0921 5.63998 63.6421 5.46998 63.8021C5.34998 63.9121 2.91998 63.0521 2.22998 63.3921C2.81998 53.6121 8.92998 45.1421 12.14 36.2621C13.9 31.4121 13.45 29.4521 12.63 24.4521C12.17 21.6121 11.42 18.8121 10.73 16.0321C11.52 16.0321 13.83 15.2321 14.34 15.6621L14.35 15.6721Z" fill="white"/>
<path d="M38.2999 54.1117C40.8399 52.2717 42.4499 59.7017 38.8799 59.3717C36.7299 59.1717 38.6799 57.2617 38.6699 56.7117C38.6699 56.2617 37.3199 54.8117 38.2999 54.1117Z" fill="white"/>
</g>
<defs>
<clipPath id="clip0_1058_8877">
<rect width="77.72" height="78.54" fill="white" transform="translate(0 0.972656)"/>
</clipPath>
</defs>
</svg>
