<svg width="81" height="71" viewBox="0 0 81 71" fill="none" xmlns="http://www.w3.org/2000/svg">
<path d="M0.5 8.13949C0.574809 7.84234 0.651695 7.54518 0.724426 7.24595C1.67616 3.2894 5.11735 0.644092 9.47079 0.533957C11.821 0.475772 14.0424 1.0493 16.1662 2.00727C19.5159 3.51799 22.8449 5.0765 26.203 6.56643C26.6539 6.76592 27.2586 6.82619 27.7428 6.72021C34.5233 5.23443 41.3517 5.01416 48.2195 5.91809C49.911 6.14044 51.5776 6.53526 53.2629 6.80748C53.5891 6.85943 53.9798 6.78255 54.2873 6.64332C57.9717 4.9913 61.6123 3.24161 65.3299 1.67271C68.21 0.45707 71.2211 0.0539354 74.2778 1.10333C79.1549 2.77614 81.3618 7.84026 79.4396 12.8794C78.6043 15.0676 77.16 16.809 75.4623 18.3654C74.9594 18.8246 74.7412 19.3213 74.6644 20.0237C74.3755 22.6066 72.9188 24.5246 70.8886 26.0229C68.7919 27.571 66.4645 28.4105 63.8213 27.9263C60.6378 27.3445 58.9213 24.6119 59.7006 21.4471C60.6855 17.4511 64.854 14.2031 69.0433 14.2094C69.5836 14.2094 69.9722 14.0805 70.3234 13.6732C70.9987 12.8919 71.7842 12.1916 72.3889 11.3604C73.0393 10.4689 73.5796 9.39669 72.871 8.33898C72.1874 7.31868 70.9696 7.30829 69.9618 7.6096C68.1124 8.16235 66.3024 8.87095 64.5257 9.63359C62.0778 10.6851 59.6798 11.855 57.2485 12.9459C56.8308 13.133 56.6958 13.3865 56.6397 13.8187C56.2178 17.0895 56.5503 20.3416 56.8911 23.5875C57.4002 28.4438 57.4792 33.2585 55.8521 37.9569C54.3372 42.3332 51.8457 46.1256 48.8367 49.5959C48.3525 50.1528 48.2486 50.5726 48.7661 51.1128C50.8191 53.249 51.0664 55.6346 50.1438 58.4233C49.1193 61.5133 48.4356 64.7134 47.5982 67.8658C47.0829 69.8067 46.1727 70.4986 44.1404 70.4986C41.5491 70.4986 38.9557 70.5007 36.3645 70.4986C34.5213 70.4986 33.5654 69.7921 33.0957 68.0383C32.0775 64.2397 31.0821 60.4348 30.0702 56.632C29.6712 55.1317 29.9288 53.7706 30.8515 52.5155C31.3544 51.8298 32.1773 51.0983 32.1648 50.398C32.1523 49.7143 31.2796 49.0327 30.7559 48.374C27.6763 44.5027 25.2055 40.3238 24.0813 35.4405C23.3104 32.0928 23.3374 28.716 23.5867 25.3143C23.8257 22.0871 24.0501 18.8558 24.125 15.6224C24.179 13.2556 24.0605 13.2639 21.9181 12.2976C19.065 11.0092 16.2451 9.63774 13.3588 8.42834C12.2138 7.94831 10.9358 7.6283 9.69937 7.55973C7.74812 7.45167 7.00626 8.72134 7.77513 10.5354C8.40477 12.0212 9.67028 12.9771 10.7654 14.0681C10.9212 14.2239 11.2974 14.1886 11.5696 14.1907C15.7318 14.2115 19.9003 17.3929 20.9227 21.3411C21.7997 24.7241 19.7964 27.6313 16.3179 28.0282C11.954 28.5248 6.90029 24.9943 6.1148 20.6616C5.86543 19.286 5.24203 18.3945 4.31939 17.5072C2.36814 15.6287 1.05067 13.3823 0.612213 10.6664C0.601823 10.5978 0.537404 10.5354 0.5 10.471C0.5 9.69385 0.5 8.91459 0.5 8.13741V8.13949ZM42.2016 68.2897C42.3575 66.5941 42.5486 64.9254 42.6525 63.2505C42.7419 61.8105 42.8957 60.3455 42.7294 58.9262C42.5195 57.1349 41.9772 55.3852 41.6489 53.6044C41.0753 50.4853 41.4909 47.5781 43.2635 44.831C44.4916 42.9275 45.5119 40.8682 46.4345 38.7944C47.9203 35.4571 48.4211 31.9411 47.7416 28.317C47.0434 24.587 45.5451 21.0294 45.4121 17.1061C41.9793 17.8168 38.6191 17.7877 35.2216 17.1165C35.0865 20.1421 34.3051 22.91 33.4885 25.6613C32.0505 30.4989 32.3975 35.1932 34.5836 39.7212C35.527 41.6745 36.6762 43.5281 37.6985 45.444C38.11 46.215 38.5069 47.0088 38.777 47.8358C39.5729 50.2899 39.2238 52.7482 38.6877 55.2003C38.2035 57.4175 37.5032 59.5932 37.8191 61.9331C38.1017 64.0319 38.2368 66.1514 38.4404 68.2918H42.2016V68.2897Z" fill="#FEFEFE"/>
</svg>
