<svg width="70" height="74" viewBox="0 0 70 74" fill="none" xmlns="http://www.w3.org/2000/svg">
<g clip-path="url(#clip0_64_2371)">
<path d="M60.9159 61.3227C62.1377 61.4599 65.6451 62.9166 66.8477 63.5069C69.7471 64.9311 70.9467 68.9129 69.1598 71.6461L44.144 71.6904C43.0287 69.6729 43.0316 67.3426 44.3334 65.4004C44.542 65.089 45.0878 64.7112 45.1618 64.4603C45.3748 63.743 45.0375 62.5122 45.2269 61.727L52.4412 36.5935L53.7711 36.4902L55.8228 30.0998C55.2903 30.0334 54.7725 29.5479 54.5669 29.0667L52.6513 21.5503L49.2623 21.4012C48.8244 23.7375 48.0108 26.0368 46.7875 28.0809C46.0464 29.3191 43.2387 33.5415 41.7299 31.1211C40.7846 29.6054 43.0331 27.8757 43.8349 26.6065C52.3022 13.2044 36.9622 -2.64903 23.2436 5.32493C19.9167 7.25827 19.4996 8.7961 17.3532 11.5264C16.2349 12.9491 14.124 12.3912 14.3459 10.4476C14.445 9.58567 16.1491 7.24942 16.7704 6.52626C25.8057 -3.98023 42.5716 -1.37833 48.0241 11.2888C48.212 11.7242 48.7416 13.6472 48.9768 13.7254L51.5344 13.7387C51.527 12.195 53.4146 10.4225 54.8746 10.2232C56.7414 9.96791 62.5579 10.331 64.1924 11.2106C64.4794 11.3655 64.9439 11.7965 65.0889 12.0843L68.8935 26.4043C69.2678 28.3775 68.111 30.0998 66.293 30.7846L64.3685 37.1499L60.5283 37.2532L54.1971 61.3227C56.3317 61.4968 58.8257 61.088 60.9144 61.3227H60.9159ZM56.7089 10.8003H54.5684C54.4279 10.8003 53.1217 11.6386 52.9397 11.826C52.4871 12.2924 52.1143 13.1114 51.9856 13.7461H55.0122C55.3302 13.1911 55.3302 12.6274 55.6468 12.0223C55.9071 11.522 56.3553 11.212 56.7103 10.8003H56.7089ZM61.5815 14.7777H49.033C49.4975 16.5841 49.6321 18.5381 49.3288 20.3755H61.583V17.871C60.583 17.6157 60.7029 18.7639 59.7369 18.7624C58.771 18.761 58.7887 17.6747 58.1319 17.8622C58.0328 17.8902 57.8819 18.8052 56.9426 18.7536C55.5432 18.6754 55.5432 16.4764 56.9426 16.3981C57.8819 16.3465 58.0313 17.26 58.1319 17.2895C58.7902 17.477 58.7931 16.3908 59.7369 16.3893C60.6807 16.3878 60.583 17.536 61.583 17.2807V14.7762L61.5815 14.7777ZM57.0047 21.4057H53.166L55.0876 29.0992C55.3021 29.4992 57.3716 30.2445 57.8168 30.2445H60.8434L59.5269 29.57L58.9973 28.9206L57.0062 21.4071L57.0047 21.4057ZM65.7146 30.8333L63.8167 30.8525L62.0253 36.5758C62.4854 36.4991 63.7546 36.7499 64.0194 36.4312L65.7146 30.8333ZM57.5949 37.1661H52.9442L45.6706 62.0207L45.7106 63.9762C47.3984 62.7631 49.2623 62.9033 51.246 62.9446L51.28 61.2858L57.5935 37.1676L57.5949 37.1661ZM63.796 62.9431C63.6022 62.6155 63.0371 62.4782 62.691 62.3513C62.2309 62.1845 60.8833 61.7639 60.4736 61.7639H54.1986V62.9416H63.7945L63.796 62.9431Z" fill="#EA3C60"/>
<path d="M14.7793 31.8633C13.0841 36.4384 16.8739 40.9559 21.72 39.7443C25.103 38.8986 26.8027 35.0378 25.5572 31.8633H28.2879C29.8145 31.8633 32.2079 33.1768 33.162 34.3663C36.1546 38.0957 31.6695 41.7204 27.9906 41.8783C22.964 41.6333 17.621 42.2119 12.6314 41.8872C9.71136 41.6968 5.70257 39.7251 6.25285 36.2436C6.6064 34.0092 9.90366 31.8633 12.0486 31.8633H14.7793Z" fill="#EA3C60"/>
<path d="M23.1948 49.5396V70.6765L22.9729 70.8964H17.3636L17.1417 70.6765V49.5396H23.1948Z" fill="#EA3C60"/>
<path d="M32.3484 45.1194V47.8438C32.3484 48.1257 31.6798 48.8503 31.3188 48.8783L9.38735 48.9521C8.89032 49.0171 7.98798 48.2629 7.98798 47.8438V45.1194H32.3484Z" fill="#EA3C60"/>
<path d="M40.3216 44.6781H0.0162713C0.0295846 43.8531 -0.207097 42.8717 0.77809 42.5662L39.0657 42.4688C40.4888 42.6296 40.3557 43.4738 40.3202 44.6781H40.3216Z" fill="#EA3C60"/>
<path d="M19.3206 29.2496C25.9965 28.3376 27.2154 37.7888 21.3117 39.0433C14.3725 40.5162 12.9657 30.1189 19.3206 29.2496Z" fill="#EA3C60"/>
<path d="M31.9061 73.9897H8.50574C8.35633 73.8805 8.34302 73.8598 8.34302 73.6872C8.34302 72.6216 9.3785 71.4675 10.4376 71.3509C16.6343 71.6726 23.3383 70.8786 29.4757 71.3317C31.0186 71.4454 32.0422 72.3987 31.9061 73.9897Z" fill="#EA3C60"/>
<path d="M42.3423 9.20337L42.616 9.31406C42.7491 9.62693 43.5701 10.3162 43.3586 10.6541L35.7522 15.0049C35.4046 15.4107 35.4845 15.8668 35.1576 16.3258C34.625 17.0755 34.2656 16.8157 33.6398 17.0209C32.949 17.2467 29.7745 21.8395 28.8604 22.5627C27.7701 23.4245 26.279 22.2778 26.9122 21.0603L31.6162 15.4432C31.9209 14.8853 31.8144 14.3201 32.344 13.8124C33.1206 13.0686 33.8928 13.3151 34.8144 13.4922L42.3438 9.20337H42.3423ZM32.9742 14.5179C32.2345 15.2543 33.489 16.7862 34.3351 15.8033C35.1812 14.8204 33.6605 13.8345 32.9742 14.5179Z" fill="#EA3C60"/>
<path d="M45.0449 22.8784L44.3571 24.8L37.0022 24.797C36.3957 24.9121 36.2714 25.839 35.0792 25.836C32.2686 25.8301 32.4476 21.5177 35.378 21.8424C36.2877 21.9428 36.7596 22.8784 36.8513 22.8784H45.0449ZM34.8203 22.9035C33.7108 23.1323 33.9342 25.0568 35.341 24.766C36.4504 24.5373 36.2271 22.6128 34.8203 22.9035Z" fill="#EA3C60"/>
<path d="M23.0868 15.3281C23.4743 15.6469 24.0158 15.3754 24.4329 16.2668C25.2273 17.964 23.2214 19.4679 21.8131 18.2931C21.0055 17.6201 21.2821 16.6652 21.5128 15.8048L18.9167 9.83949L20.0218 8.44482L23.0868 15.3281ZM22.5616 16.2786C21.8827 16.4822 22.0454 17.7456 22.8457 17.8312C24.1119 17.9669 23.998 15.8476 22.5616 16.2786Z" fill="#EA3C60"/>
<path d="M25.4107 24.7941C24.8782 24.6554 22.927 25.3358 22.6682 24.9491L21.8664 18.755C22.9137 19.2199 23.6652 19.0118 24.5217 18.3123L25.4107 24.7941Z" fill="#EA3C60"/>
<path d="M28.9535 22.8784V27.5922H26.1489V21.038L26.8855 20.5229C26.9669 20.6189 25.9137 21.9471 27.0379 22.8031C27.7036 23.3093 28.2494 23.116 28.9535 22.8799V22.8784Z" fill="#EA3C60"/>
<path d="M34.8587 26.1208C33.9312 26.9414 32.1902 29.6363 30.9491 29.6673C30.6118 29.6761 30.3011 29.44 29.9935 29.5743C29.671 29.7175 28.6133 31.3748 28.3633 31.1254C28.3204 30.4982 29.7553 29.5935 29.8174 29.2629C29.8559 29.0592 29.56 28.8024 29.5423 28.5383C29.4535 27.1849 32.0186 25.4641 32.7182 24.3528C33.2345 25.2117 33.773 25.9895 34.8587 26.1194V26.1208Z" fill="#EA3C60"/>
<path d="M47.925 71.928H51.6158C51.9738 72.173 51.6054 72.8873 51.3954 73.181C50.6321 74.2495 49.0419 74.2701 48.215 73.2577C47.9635 72.9493 47.5508 72.2143 47.925 71.928Z" fill="#EA3C60"/>
<path d="M61.728 71.928H65.4927C65.8507 72.173 65.4823 72.8873 65.2723 73.181C64.1569 74.7439 61.4706 73.8731 61.728 71.928Z" fill="#EA3C60"/>
<path d="M28.6577 27.7383C28.9077 28.4201 27.7716 28.5529 27.7716 28.6223V30.9792H27.4758V28.6223C27.4758 28.5603 26.6119 28.4393 26.4432 27.9567V27.7383H28.6562H28.6577Z" fill="#EA3C60"/>
<path d="M25.2613 24.9417C25.3989 25.4907 24.4566 25.8449 24.3915 26.0677C24.3072 26.3599 24.7258 27.6041 24.677 28.1044C24.6548 28.3272 24.5439 28.5501 24.3767 28.3287L24.0528 25.9998C23.64 25.9069 23.0528 25.7681 23.0483 25.2354L25.2613 24.9402V24.9417Z" fill="#EA3C60"/>
</g>
<defs>
<clipPath id="clip0_64_2371">
<rect width="70" height="74" fill="white"/>
</clipPath>
</defs>
</svg>
