<svg width="27" height="27" viewBox="0 0 27 27" fill="none" xmlns="http://www.w3.org/2000/svg">
<path d="M7.9873 3.375C9.30012 3.375 10.559 3.87581 11.4873 4.7666C12.4156 5.6574 12.9375 6.86522 12.9375 8.125V24.75C12.9375 23.8052 12.5468 22.8986 11.8506 22.2305C11.1544 21.5624 10.2092 21.1875 9.22461 21.1875H1.5625C1.01022 21.1875 0.5625 20.7398 0.5625 20.1875V4.375C0.5625 3.82272 1.01022 3.375 1.5625 3.375H7.9873ZM25.4375 3.375C25.9898 3.375 26.4375 3.82272 26.4375 4.375V20.1875C26.4375 20.7398 25.9898 21.1875 25.4375 21.1875H17.7754C16.7908 21.1875 15.8456 21.5624 15.1494 22.2305C14.4532 22.8986 14.0625 23.8052 14.0625 24.75V8.125C14.0625 6.86522 14.5844 5.6574 15.5127 4.7666C16.441 3.87581 17.6999 3.375 19.0127 3.375H25.4375Z" fill="#EF579F"/>
</svg>
