<svg width="24" height="24" viewBox="0 0 24 24" fill="none" xmlns="http://www.w3.org/2000/svg">
<path d="M23.6659 17.8028V21.3154C23.6673 21.6415 23.6003 21.9643 23.4694 22.263C23.3385 22.5618 23.1466 22.83 22.9058 23.0505C22.665 23.2709 22.3808 23.4388 22.0713 23.5432C21.7618 23.6477 21.4338 23.6865 21.1084 23.6571C17.4983 23.2656 14.0305 22.0345 10.9837 20.0626C8.14908 18.2649 5.7458 15.8664 3.94456 13.0374C1.96184 9.9828 0.727947 6.50507 0.342855 2.88592C0.313537 2.56214 0.352093 2.23581 0.456068 1.92771C0.560043 1.61961 0.727158 1.3365 0.946775 1.09639C1.16639 0.856282 1.4337 0.664442 1.73167 0.533085C2.02965 0.401729 2.35176 0.333733 2.67751 0.333427H6.19709C6.76645 0.327834 7.31842 0.529054 7.75012 0.89958C8.18182 1.27011 8.46379 1.78466 8.54348 2.34732C8.69203 3.47143 8.96753 4.57517 9.36471 5.63746C9.52256 6.05655 9.55672 6.512 9.46315 6.94987C9.36958 7.38773 9.1522 7.78965 8.83677 8.108L7.34682 9.595C9.01693 12.5263 11.4488 14.9534 14.386 16.6202L15.8759 15.1332C16.1949 14.8184 16.5976 14.6015 17.0364 14.5081C17.4751 14.4147 17.9315 14.4488 18.3514 14.6063C19.4158 15.0027 20.5217 15.2777 21.648 15.4259C22.2179 15.5062 22.7384 15.7927 23.1105 16.2309C23.4825 16.6691 23.6802 17.2286 23.6659 17.8028Z" fill="#EF579F"/>
<path d="M20.6101 1V3.18335C20.6101 3.18335 20.8019 3.38988 20.8166 3.38988H23V5.61012H20.7355L20.6101 5.73551V8H18.5153L18.3899 7.8746V5.73551L18.2645 5.61012H16.1254L16 5.48472V3.38988H18.2645L18.3899 3.26449V1H20.6101Z" fill="#EF579F"/>
</svg>
