<svg width="28" height="28" viewBox="0 0 28 28" fill="none" xmlns="http://www.w3.org/2000/svg">
<path d="M23.333 9.33301C25.2659 9.33301 26.8328 10.9002 26.833 12.833V23.333C26.833 25.266 25.266 26.833 23.333 26.833H12.833C10.9002 26.8328 9.33301 25.2659 9.33301 23.333V12.833C9.33318 10.9003 10.9003 9.33318 12.833 9.33301H23.333ZM15.166 1.33301C16.0499 1.33301 16.8983 1.68465 17.5234 2.30957C18.1483 2.93452 18.4998 3.78227 18.5 4.66602V5.83301C18.5 6.38518 18.0521 6.83283 17.5 6.83301C16.9479 6.83283 16.5 6.38518 16.5 5.83301V4.66602C16.4998 4.31271 16.3592 3.97351 16.1094 3.72363C15.8594 3.47379 15.5195 3.33301 15.166 3.33301H4.66602C4.31263 3.33318 3.97353 3.47374 3.72363 3.72363C3.47374 3.97353 3.33318 4.31263 3.33301 4.66602V15.166C3.33301 15.5195 3.47379 15.8594 3.72363 16.1094C3.97351 16.3592 4.31271 16.4998 4.66602 16.5H5.83301L5.93555 16.5049C6.43956 16.5562 6.83284 16.9825 6.83301 17.5C6.83284 18.0175 6.43954 18.4428 5.93555 18.4941L5.83301 18.5H4.66602C3.78227 18.4998 2.93452 18.1483 2.30957 17.5234C1.68465 16.8983 1.33301 16.0499 1.33301 15.166V4.66602C1.33318 3.7822 1.6846 2.93454 2.30957 2.30957C2.93454 1.6846 3.7822 1.33318 4.66602 1.33301H15.166Z" fill="#EF579F"/>
</svg>
