<svg width="26" height="26" viewBox="0 0 26 26" fill="none" xmlns="http://www.w3.org/2000/svg">
<path d="M11.6605 2.11146L3.1355 8.65471C2.59301 9.07109 2.275 9.71606 2.275 10.3999V23.8167C2.275 24.4242 2.76749 24.9167 3.375 24.9167H8.325C8.93251 24.9167 9.425 24.4242 9.425 23.8167V17.675C9.425 17.0675 9.91749 16.575 10.525 16.575H15.475C16.0825 16.575 16.575 17.0675 16.575 17.675V23.8167C16.575 24.4242 17.0675 24.9167 17.675 24.9167H22.625C23.2325 24.9167 23.725 24.4242 23.725 23.8167V10.3999C23.725 9.71606 23.407 9.07109 22.8645 8.65471L14.3395 2.11146C13.5494 1.50506 12.4506 1.50506 11.6605 2.11146Z" fill="#FF56A6"/>
</svg>
