<svg width="32" height="25" viewBox="0 0 32 25" fill="none" xmlns="http://www.w3.org/2000/svg">
<g clip-path="url(#clip0_1_765)">
<path d="M10.9641 14.1275C14.3347 13.766 15.8401 15.2897 18.6644 16.3486C20.0233 16.8522 22.8343 17.2784 23.8467 17.8595C25.179 18.6213 24.2198 19.7577 23.0341 19.8739C21.6353 20.016 15.8934 17.7949 15.0807 19.0475C14.6278 19.7448 16.0666 19.2283 16.293 19.2153C18.5179 19.1637 21.542 20.6616 23.3272 20.3259C24.6061 20.0805 25.5253 18.9829 24.686 17.782C26.0849 17.3817 28.9625 14.3858 30.308 14.6053C30.3746 14.6053 31.4271 14.954 31.4937 14.9669C32.4929 15.393 31.7602 16.3099 31.4005 16.8135C29.149 19.9772 24.6461 22.7536 20.7693 23.6188C17.2922 24.3935 13.602 20.9845 10.1781 21.4106C9.47206 21.501 6.741 22.7019 6.35466 22.392C6.12818 22.2112 4.32968 17.2913 4.44958 17.033C4.55616 16.7877 6.11486 16.4261 6.48788 16.2324C8.12652 15.4059 8.85924 14.3471 10.9641 14.1146V14.1275Z" fill="#EF579F"/>
<path d="M3.61035 16.9814C3.90343 17.1751 6.1016 23.1797 6.06164 23.5284C5.99503 24.0061 3.1041 25.0392 2.75772 24.9876C2.34473 24.9359 2.25148 24.471 2.11826 24.1869C1.81184 23.6317 -0.0532679 18.5826 2.10493e-05 18.2727C0.0399877 18.0015 0.133243 17.9757 0.346399 17.8465C0.732744 17.6141 3.27729 16.7747 3.61035 16.9943V16.9814Z" fill="#EF579F"/>
<path d="M22.3333 1H18.6667V4.66667H15V8.33333H18.6667V12H22.3333V8.33333H26V4.66667H22.3333V1Z" fill="#EF579F"/>
</g>
<defs>
<clipPath id="clip0_1_765">
<rect width="32" height="25" fill="white"/>
</clipPath>
</defs>
</svg>
