<svg width="29" height="28" viewBox="0 0 29 28" fill="none" xmlns="http://www.w3.org/2000/svg">
<path d="M25.029 0.423167C25.0974 0.571652 25.0898 0.599935 25.143 0.74842C25.2799 1.12317 25.4015 1.49085 25.5308 1.83731C25.66 2.18378 25.7056 2.60095 26.1541 2.65045C26.8764 2.72822 27.819 2.55146 28.526 2.65045C28.8453 2.69994 29.0658 2.99691 28.9822 3.30095C28.9062 3.58378 28.3664 3.7959 28.1459 3.95146C27.7506 4.24136 27.3781 4.56661 26.9144 4.79288C26.6331 5.1252 26.7623 5.3656 26.8764 5.74035C26.8992 5.80399 26.9676 5.95955 27.0132 6.09389C27.1196 6.41914 27.5606 7.33834 27.4845 7.59995C27.4161 7.83329 27.0588 8.05248 26.7927 7.98884C26.7547 7.98177 26.7471 7.904 26.7319 7.89692C26.4202 7.78379 26.5571 7.79793 26.3518 7.67066C25.9489 7.40905 25.5764 7.20399 25.1734 6.94945C24.8694 6.75147 24.8313 6.54642 24.3448 6.60298C24.0407 6.63834 24.0255 6.8151 23.8583 6.92824C23.6682 7.05551 23.3489 7.19692 23.1589 7.3242C22.8168 7.55753 22.3834 8.06662 21.9349 7.98177C21.2355 7.8545 21.6308 7.16864 21.7448 6.79389C21.8817 6.35551 22.0033 5.97369 22.1325 5.48581C22.1478 5.43631 22.239 5.45045 22.2542 5.40803C22.3454 5.05449 22.1021 4.84944 21.8285 4.63732C21.494 4.3757 20.1027 3.61913 20.0191 3.31509C19.9355 3.01105 20.1332 2.71408 20.4753 2.66459C21.2279 2.5656 22.1782 2.72822 22.9536 2.66459C23.3489 2.37469 23.4477 1.89388 23.6074 1.46256C23.7062 1.18681 23.7822 0.797915 23.8887 0.508015C23.9951 0.218116 24.2232 -0.0647134 24.5729 0.0130646C24.9226 0.0908426 24.9074 0.203974 25.0138 0.444379L25.029 0.423167Z" fill="#EF579F"/>
<path d="M20.5244 18.7773C20.8868 18.408 21.4655 18.3792 21.8613 18.6953L21.9385 18.7637L22.2061 19.043C22.8137 19.7186 23.3049 20.5496 23.6562 21.3652C24.0546 22.29 24.3145 23.292 24.3145 24.1367V26.0391C24.3145 26.5912 23.8666 27.0389 23.3145 27.0391C22.7622 27.0391 22.3145 26.5913 22.3145 26.0391V24.1367C22.3145 23.6517 22.1512 22.9267 21.8193 22.1562C21.5317 21.4885 21.1484 20.8594 20.7227 20.3848L20.5381 20.1914L20.4688 20.1162C20.1446 19.7266 20.162 19.147 20.5244 18.7773ZM9.99219 7C12.7512 7.00011 14.9883 9.23701 14.9883 11.9961C14.9882 14.7551 12.7512 16.9921 9.99219 16.9922C7.23311 16.9922 4.99621 14.7551 4.99609 11.9961C4.99609 9.23694 7.23304 7 9.99219 7ZM16.5947 8.43066C17.0038 8.1131 17.582 8.16308 17.9316 8.53027L17.998 8.60742L18.1328 8.78906C18.7873 9.70869 19.1406 10.8109 19.1406 11.9434C19.1406 13.1514 18.7388 14.3259 17.998 15.2803C17.6594 15.7162 17.0309 15.7955 16.5947 15.457C16.1587 15.1184 16.0796 14.4899 16.418 14.0537C16.8864 13.4502 17.1406 12.7074 17.1406 11.9434C17.1406 11.275 16.9464 10.6231 16.584 10.0664L16.418 9.83398L16.3594 9.75C16.0907 9.32034 16.1859 8.74815 16.5947 8.43066Z" fill="#EF579F"/>
<path d="M0.000244141 24.2119C0.000244141 21.4505 2.23882 19.2119 5.00024 19.2119H14.9838C17.7452 19.2119 19.9838 21.4505 19.9838 24.2119V26.9833H0.000244141V24.2119Z" fill="#EF579F"/>
</svg>
